<?xml version="1.0" standalone="no"?>
<!DOCTYPE svg PUBLIC "-//W3C//DTD SVG 20010904//EN"
 "http://www.w3.org/TR/2001/REC-SVG-20010904/DTD/svg10.dtd">
<svg version="1.0" xmlns="http://www.w3.org/2000/svg"
 width="283.000000pt" height="283.000000pt" viewBox="0 0 283.000000 283.000000"
 preserveAspectRatio="xMidYMid meet">
<metadata>
Created by potrace 1.14, written by Peter Selinger 2001-2017
</metadata>
<g transform="translate(0.000000,283.000000) scale(0.100000,-0.100000)"
fill="#000000" stroke="none">
<path d="M1078 2354 c-132 -21 -243 -64 -366 -141 -107 -67 -284 -265 -318
-355 -3 -10 29 17 72 60 128 126 290 223 439 262 81 21 221 21 314 -1 136 -32
297 -122 415 -234 l39 -36 151 6 c83 4 153 9 155 11 8 8 -55 99 -109 157 -121
130 -296 230 -455 261 -16 4 -41 9 -55 12 -53 11 -209 10 -282 -2z"/>
<path d="M880 2056 c-310 -66 -553 -292 -646 -601 -23 -78 -26 -108 -26 -225
0 -105 4 -152 21 -213 76 -287 289 -510 566 -596 101 -32 136 -36 270 -34 125
1 233 22 312 61 l39 18 23 -57 c30 -78 77 -146 121 -175 39 -26 99 -47 101
-36 0 4 3 16 6 27 2 11 5 85 6 165 0 122 -7 198 -28 270 -1 3 -5 18 -10 35 -5
16 -21 52 -37 79 -16 26 -27 50 -25 52 7 7 83 -97 107 -145 45 -89 65 -218 50
-328 -3 -29 -5 -53 -3 -53 10 0 57 113 72 173 36 143 23 291 -37 400 -67 125
-253 263 -380 283 -20 3 -40 8 -44 10 -4 3 -40 5 -80 6 -59 0 -67 2 -43 9 65
19 214 47 295 55 59 5 292 5 340 -2 111 -14 120 -19 54 -28 -25 -3 -67 -15
-92 -26 -59 -26 -142 -82 -142 -95 0 -5 19 -28 41 -50 56 -53 103 -129 134
-212 14 -37 26 -70 26 -73 1 -3 3 -7 5 -9 2 -2 4 9 4 25 1 82 76 227 163 315
95 97 102 100 177 74 57 -20 55 -21 72 24 l16 39 -29 11 c-16 6 -41 15 -56 21
-40 13 -180 47 -233 55 -25 4 -54 9 -64 11 -113 21 -381 20 -506 -1 -14 -2
-45 -7 -70 -10 -65 -9 -150 -31 -270 -71 -141 -46 -138 -44 -116 -92 17 -38
19 -39 51 -29 29 9 38 6 81 -24 100 -69 194 -181 237 -284 24 -60 40 -126 30
-136 -4 -4 -48 -20 -98 -34 -347 -101 -656 75 -752 428 -9 36 -17 106 -18 167
-7 356 235 658 589 735 110 24 263 17 366 -18 81 -27 73 -15 -23 34 -56 29
-146 60 -212 74 -63 14 -270 14 -335 1z"/>
<path d="M2411 1372 c-5 -9 -41 -98 -81 -197 -40 -99 -78 -192 -85 -208 -13
-25 -12 -28 13 -41 59 -30 70 -29 86 6 53 119 165 413 159 419 -5 4 -25 14
-45 23 -35 14 -39 14 -47 -2z"/>
<path d="M768 1329 c-21 -11 -38 -24 -38 -29 0 -5 17 -42 39 -82 21 -40 69
-131 106 -203 37 -71 69 -132 71 -134 6 -7 49 9 74 28 18 14 21 22 13 33 -5 7
-52 94 -103 193 -101 194 -112 215 -120 215 -3 -1 -22 -10 -42 -21z"/>
<path d="M2543 1243 c-3 -10 -32 -83 -64 -162 -32 -80 -58 -146 -56 -147 5 -5
91 -43 93 -41 1 2 119 292 131 323 2 6 -14 19 -37 28 -51 20 -59 20 -67 -1z"/>
<path d="M647 1196 c-52 -32 -51 -30 -24 -78 13 -24 48 -88 77 -143 70 -134
65 -129 111 -102 21 12 39 26 39 31 0 10 -147 296 -158 308 -4 4 -24 -4 -45
-16z"/>
</g>
</svg>
